<svg xmlns="http://www.w3.org/2000/svg" viewBox="0 0 64 64">
  <defs>
    <linearGradient id="ig" x1="22" y1="10" x2="42" y2="54" gradientUnits="userSpaceOnUse">
      <stop offset="0" stop-color="#f4a45e" />
      <stop offset="1" stop-color="#e8843f" />
    </linearGradient>
  </defs>
  <rect x="3" y="3" width="58" height="58" rx="18" fill="#2a211a" />
  <path d="M34.5 10c.5 9.5 10.5 13.5 10.5 25.5a13 13 0 0 1-26 0c0-6.2 3.2-10.4 7.2-14.4-.2 4 1.8 6.2 4.8 6.2 3.2 0 4.6-3 2.6-7.2-2.4-5.2-2.2-10.4-1.9-16z" fill="url(#ig)" />
  <path d="M32 33c.3 4.6 5.6 6 4.4 11.2A6.2 6.2 0 0 1 24 43c0-3 1.6-5 3.8-7.2.1 1.8 1.1 2.8 2.2 2.8 1.4 0 2.2-1.6 1.4-3.4-.6-1.4-.4-2.8.6-2.2z" fill="#ffd9b0" opacity="0.5" />
</svg>
